# xmcd
#
# Track frame offsets:
#	150
#	29492
#	62459
#	90009
#	142060
#	172789
#
# Disc length: 2725 seconds
#
# Revision: 0
# Processed by: cddbd v1.5.2PL0 Copyright (c) Steve Scherf et al.
# Submitted via: audiograbber 1.83.01
#
DISCID=3f0aa306
DTITLE=Grateful Dead - 82-12-28 Oakland Auditorium Arena, Oakland CA
DYEAR=1900
DGENRE=
TTITLE0=Space
TTITLE1=Throwing Stones
TTITLE2=Not Fade Away
TTITLE3=Morning Dew
TTITLE4=Satisfaction
TTITLE5=It's All Over Now, Baby Blue
EXTD=
EXTT0=
EXTT1=
EXTT2=
EXTT3=
EXTT4=
EXTT5=
PLAYORDER=
